# xmcd
# 
# Track frame offsets:
#     150
#     14398
#     31742
#     52410
#     77758
#     94827
#     109199
#     130559
#     145371
#     170641
#     188893
#     204990
# 
# Disc length: 2989
# 
# Revision: 1
# Processed by: cddbd v1.5.2PL0 Copyright (c) Steve Scherf et al.
# Submitted via: fre:ac v1.0.31
# 
DISCID=a30bab0c
DTITLE=Robin Trower - Coming Closer To The Day
DYEAR=2019
DGENRE=Rock/Pop
TTITLE0=Diving Bell
TTITLE1=Truth Or Lies
TTITLE2=Coming Closer To The Day
TTITLE3=Ghosts
TTITLE4=Tide Of Confusion
TTITLE5=The Perfect Wrong
TTITLE6=Little Girl Blue
TTITLE7=Someone Of Great Renown
TTITLE8=Lonesome Road
TTITLE9=Tell Me
TTITLE10=Don't Ever Change
TTITLE11=Take Me With You
EXTD=
EXTT0=
EXTT1=
EXTT2=
EXTT3=
EXTT4=
EXTT5=
EXTT6=
EXTT7=
EXTT8=
EXTT9=
EXTT10=
EXTT11=
PLAYORDER=
